<?xml version="1.0" standalone="no"?><!DOCTYPE svg PUBLIC "-//W3C//DTD SVG 1.1//EN" "http://www.w3.org/Graphics/SVG/1.1/DTD/svg11.dtd"><svg t="1531200721930" class="icon" style="" viewBox="0 0 1024 1024" version="1.1" xmlns="http://www.w3.org/2000/svg" p-id="2490" xmlns:xlink="http://www.w3.org/1999/xlink" width="32" height="32"><defs><style type="text/css"></style></defs><path d="M181.032076 445.811532c18.866696 0 34.133402-15.283078 34.133402-34.133402 0-172.216293 140.099828-312.316122 312.333518-312.316122 172.19992 0 312.299749 140.099828 312.299749 312.316122 0 59.600423-16.833387 117.532857-48.700165 167.550017-10.133801 15.900132-5.433756 36.999682 10.466376 47.117111 5.66707 3.63376 12.033058 5.349845 18.299785 5.349845 11.266601 0 22.333658-5.583159 28.833699-15.799848 38.833447-60.98291 59.367109-131.600247 59.367109-204.216101 0-209.850425-170.733523-380.582925-380.566552-380.582925-209.866798 0-380.600321 170.733523-380.600321 380.582925C146.898675 430.52743 162.16538 445.811532 181.032076 445.811532z" p-id="2491" fill="#ffffff"></path><path d="M641.254829 228.959645c-10.512425-10.512425-27.552519-10.512425-38.051641 0l-75.312266 75.31022-76.112492-76.112492c-10.512425-10.510378-27.539216-10.510378-38.051641 0-10.510378 10.510378-10.510378 27.552519 0 38.047548l87.160105 87.160105c-0.031722 0.537236-0.310062 0.995677-0.310062 1.542122l0 26.907836-67.271126 0c-14.862499 0-26.910906 12.048407-26.910906 26.910906s12.047384 26.907836 26.910906 26.907836l67.271126 0 0 53.816696-67.271126 0c-14.862499 0-26.910906 12.050454-26.910906 26.907836 0 14.860453 12.047384 26.909883 26.910906 26.909883l67.271126 0 0 80.724533c0 14.862499 12.048407 26.90579 26.910906 26.90579 14.858406 0 26.90579-12.043291 26.90579-26.90579l0-80.724533 67.271126 0c14.860453 0 26.909883-12.050454 26.909883-26.909883 0-14.858406-12.050454-26.907836-26.909883-26.907836l-67.271126 0 0-53.816696 67.271126 0c14.860453 0 26.909883-12.045337 26.909883-26.907836s-12.050454-26.910906-26.909883-26.910906l-67.271126 0 0-26.907836c0-0.305969-0.164752-0.558725-0.174985-0.862647l87.037309-87.037309C651.765207 256.498862 651.765207 239.470023 641.254829 228.959645z" p-id="2492" fill="#ffffff"></path><path d="M951.464987 729.810724c-94.500281-19.399839-201.033619-78.899978-201.233164-78.899978-46.566572-31.133068-83.166141-46.266743-111.899556-46.266743-24.200168 0-44.366464 10.999518-55.266721 30.18344-14.100136 24.699542-9.533121 57.700143 2.200108 77.532841 5.399987 9.05012 15.932878 24.600281 27.132964 40.71633-232.966912-14.616906-273.399787-67.900459-319.600015-128.783085-14.433734-18.983353-29.333072-38.600133-49.800219-58.416458-37.733393-36.482913-68.433602-53.466726-96.632851-53.466726-21.833261 0-40.666188 10.383488-53.066613 29.233811-25.566282 38.933731-17.032932 109.200074-7.766894 130.599454 105.099686 242.716974 358.76706 285.133016 369.499495 286.816355 1.766226 0.283456 3.533476 0.416486 5.299703 0.416486l484.266355 0c18.866696 0 34.133402-15.283078 34.133402-34.133402L978.73098 763.244184C978.732004 747.044224 967.331349 733.060745 951.464987 729.810724zM910.465201 891.210671 463.365326 891.210671c-24.166399-4.666276-230.233662-49.866734-315.066769-245.800195-4.700045-12.716626-5.500271-51.349505 0.766456-64.183811 5.566786 1.666966 20.033265 8.167007 46.466288 33.716916 16.733103 16.183588 29.433356 32.91669 42.866297 50.633191 58.566884 77.116355 113.833605 149.966547 441.432805 158.76698 14.532995 0.816598 25.066909-6.733355 31.133068-18.200524 6.066159-11.499915 5.066389-25.449625-2.566452-35.966143-14.399965-19.816325-53.999868-75.100442-64.266699-92.416829-0.533143-1.033539-0.967024-2.683109-1.233084-4.400217 9.233292 1.550309 30.499641 8.300037 71.566966 35.649941 4.333702 2.449795 98.999758 55.56655 195.999976 81.233116L910.465201 891.210671 910.465201 891.210671z" p-id="2493" fill="#ffffff"></path></svg>