<?xml version="1.0" standalone="no"?><!DOCTYPE svg PUBLIC "-//W3C//DTD SVG 1.1//EN" "http://www.w3.org/Graphics/SVG/1.1/DTD/svg11.dtd"><svg t="1554952519219" class="icon" style="" viewBox="0 0 1024 1024" version="1.1" xmlns="http://www.w3.org/2000/svg" p-id="569" xmlns:xlink="http://www.w3.org/1999/xlink" width="64" height="64"><defs><style type="text/css"></style></defs><path d="M314.701907 388.182378c25.663678 84.690137 76.991034 118.052919 158.473211 148.849332a75.066258 75.066258 0 0 0 41.061885 2.566368C588.661669 531.898974 662.444744 457.474308 682.975686 388.182378a87.256505 87.256505 0 0 0 30.796414-35.287558c7.699103-17.964575 10.265471-41.061885 10.265471-69.29193V275.903786l-7.699104-5.132735c-2.566368-2.566368-5.132736-2.566368-7.699103-5.132736 15.398207-107.787448-5.132736-179.004154-61.592827-220.066039-78.91581-61.592827-232.897878-61.592827-311.813688 5.132736-51.327356 43.628253-66.725563 96.880384-48.760988 214.933303-2.566368 0-2.566368 2.566368-5.132736 2.566368l-7.699103 5.132735v7.699104c0 28.230046 2.566368 51.327356 10.265471 69.29193a80.198994 80.198994 0 0 0 30.796414 37.853926zM511.670635 615.94752h-38.495517v23.09731l20.530943 10.265471-28.230046 159.114804-119.977695-253.42882c-15.398207 17.964575-38.495517 25.663678-66.725562 23.09731H181.250781C76.671293 667.274876 58.706719 846.27903 56.140351 951.50011c20.530942 20.530942 61.592827 35.929149 112.920183 46.19462l17.322983-61.592827 41.061885 71.858298a1787.475173 1787.475173 0 0 0 284.225233 15.398207zM511.670635 615.94752h38.495517v23.09731l-20.530942 10.265471 28.230046 159.114804L678.484542 554.996285c15.398207 17.964575 38.495517 25.663678 66.083971 23.09731h97.521977c105.22108 89.181281 123.185654 268.185435 125.752022 373.406515-20.530942 20.530942-61.592827 35.929149-112.920183 46.19462l-17.964575-61.592827-41.061885 71.858298a1782.984029 1782.984029 0 0 1-284.225234 15.398207z" fill="#ffffff" p-id="570"></path><path d="M817.068404 673.049203a121.260879 121.260879 0 0 0-126.393615 0A125.11043 125.11043 0 0 0 627.157186 782.761427a131.52635 131.52635 0 0 0 63.517603 110.353815 127.035206 127.035206 0 0 0 189.911218-110.353815 127.035206 127.035206 0 0 0-63.517603-109.712224z m2.566367 179.004154h-30.796413v-47.477804a419.601135 419.601135 0 0 1 4.491143-48.119396h-0.641591l-11.548656 33.362781-18.606166 50.685764h-17.964575l-19.247758-50.685764-10.907063-33.362781h-0.641592a419.601135 419.601135 0 0 1 4.491143 48.119396v47.477804h-30.154821v-137.942269h35.929149l21.814126 59.02646c3.20796 8.340695 5.132736 16.681391 7.699104 25.663678h1.283183c2.566368-8.982287 4.491144-17.322983 7.057512-25.663678l21.172534-59.02646h36.570741z" fill="#ffffff" p-id="571"></path></svg>