<?xml version="1.0" standalone="no"?><!DOCTYPE svg PUBLIC "-//W3C//DTD SVG 1.1//EN" "http://www.w3.org/Graphics/SVG/1.1/DTD/svg11.dtd"><svg t="1535333189432" class="icon" style="" viewBox="0 0 1024 1024" version="1.1" xmlns="http://www.w3.org/2000/svg" p-id="1048" xmlns:xlink="http://www.w3.org/1999/xlink" width="200" height="200"><defs><style type="text/css"></style></defs><path d="M819.5 107H199.3C140.7 107 93 154.7 93 213.3v356c0 17.6 14.3 31.9 31.9 31.9s31.9-14.3 31.9-31.9v-356c0-23.4 19.1-42.5 42.5-42.5h620.2c23.4 0 42.5 19.1 42.5 42.5v584.5c0 23.4-19.1 42.5-42.5 42.5h-413c-17.6 0-31.9 14.3-31.9 31.9s14.3 31.9 31.9 31.9h413c58.6 0 106.3-47.7 106.3-106.3V213.3c0-58.6-47.7-106.3-106.3-106.3z" p-id="1049"></path><path d="M531.2 671.9v61.4c-0.1 19.3 22.3 30 37.3 17.9l229.1-185.3c11.4-9.2 11.3-26.5-0.1-35.7l-228-205.1c-15-12-38.3-1.4-38.4 17.8V405c0 11.7-8 20.1-19.4 22.7C207.5 497 130.6 853.6 133.2 878.1c99-93.7 199-238.6 375.7-229.2 12.6 0.7 22.4 10.5 22.3 23z" p-id="1050"></path></svg>