<?xml version="1.0" standalone="no"?><!DOCTYPE svg PUBLIC "-//W3C//DTD SVG 1.1//EN" "http://www.w3.org/Graphics/SVG/1.1/DTD/svg11.dtd"><svg t="1530169892241" class="icon" style="" viewBox="0 0 1024 1024" version="1.1" xmlns="http://www.w3.org/2000/svg" p-id="3901" xmlns:xlink="http://www.w3.org/1999/xlink" width="32" height="32"><defs><style type="text/css"></style></defs><path d="M385.1 568.3h257.1c11.7 0 21.2-9.5 21.2-21.2s-9.5-21.2-21.2-21.2H385.1c-11.7 0-21.2 9.5-21.2 21.2s9.5 21.2 21.2 21.2z m550.8-200.6c-0.1-0.1 0-0.3-0.1-0.4L801.7 112.8c-3.5-7.4-11-12.1-19.2-12.1h-543c-8.2 0-15.7 4.7-19.2 12.1L90.2 367.3c-0.1 0.1 0 0.3-0.1 0.4-1.2 2.7-2 5.6-2 8.7V907c0 11.7 9.5 21.2 21.2 21.2h807.3c11.7 0 21.2-9.5 21.2-21.2V376.4c0.1-3.1-0.7-6-1.9-8.7zM534.2 143.2h234.9l113.9 212H534.2v-212z m-281.3 0h238.8v212H143l109.9-212z m642.5 742.5H130.6v-488h764.8v488z" p-id="3902" fill="#ffffff"></path></svg>