<?xml version="1.0" standalone="no"?><!DOCTYPE svg PUBLIC "-//W3C//DTD SVG 1.1//EN" "http://www.w3.org/Graphics/SVG/1.1/DTD/svg11.dtd"><svg t="1529049739110" class="icon" style="" viewBox="0 0 1024 1024" version="1.1" xmlns="http://www.w3.org/2000/svg" p-id="3488" xmlns:xlink="http://www.w3.org/1999/xlink" width="32" height="32"><defs><style type="text/css"></style></defs><path d="M108.461059 1020.809969C47.850467 1020.809969 0 972.959502 0 912.34891V108.461059C0 47.850467 47.850467 0 108.461059 0h807.077882C972.959502 0 1020.809969 47.850467 1020.809969 108.461059v807.077882c0 60.610592-47.850467 108.461059-108.461059 108.461059L108.461059 1020.809969z m0-953.819315c-22.330218 0-38.280374 19.140187-38.280374 38.280374v807.077882c0 22.330218 19.140187 38.280374 38.280374 38.280373h807.077882c22.330218 0 38.280374-19.140187 38.280374-38.280373V108.461059c0-22.330218-19.140187-38.280374-38.280374-38.280374L108.461059 66.990654z m70.180686 695.426791c-19.140187 0-35.090343-15.950156-35.090343-35.090342 0-19.140187 15.950156-35.090343 35.090343-35.090343h660.336448c19.140187 0 35.090343 15.950156 35.090343 35.090343 0 19.140187-15.950156 35.090343-35.090343 35.090342H178.641745z m169.071651-277.53271l-143.551402 159.501558c-6.380062 6.380062-15.950156 12.760125-25.520249 12.760124-9.570093 0-15.950156-3.190031-22.330219-9.570093-6.380062-6.380062-9.570093-12.760125-12.760124-22.330218 0-9.570093 3.190031-15.950156 9.570093-25.520249l188.211838-207.352025 197.781932 181.831775 223.30218-248.822429H638.006231c-19.140187 0-35.090343-15.950156-35.090343-35.090343 0-19.140187 15.950156-35.090343 35.090343-35.090343H848.548287c3.190031 0 3.190031 3.190031 6.380062 3.190031 0 0 3.190031 0 3.190031 3.190032l3.190031 3.190031s3.190031 3.190031 3.190031 6.380062V510.404984c0 19.140187-15.950156 35.090343-35.090342 35.090343-19.140187 0-35.090343-15.950156-35.090343-35.090343v-133.981308l-261.582555 290.292835-185.021806-181.831776z" fill="#ffffff" p-id="3489"></path></svg>