<?xml version="1.0" standalone="no"?><!DOCTYPE svg PUBLIC "-//W3C//DTD SVG 1.1//EN" "http://www.w3.org/Graphics/SVG/1.1/DTD/svg11.dtd"><svg t="1529049955008" class="icon" style="" viewBox="0 0 1024 1024" version="1.1" xmlns="http://www.w3.org/2000/svg" p-id="2168" xmlns:xlink="http://www.w3.org/1999/xlink" width="32" height="32"><defs><style type="text/css"></style></defs><path d="M860.693447 938.666661 163.306553 938.666661C133.694432 938.666661 109.661407 914.633636 109.661407 885.021516L109.661407 138.978474C109.661407 109.366353 133.694432 85.333328 163.306553 85.333328L860.693447 85.333328C890.305568 85.333328 914.338593 109.366353 914.338593 138.978474L914.338593 885.021516C914.338593 914.633636 890.305568 938.666661 860.693447 938.666661ZM860.693447 192.033523 163.306553 192.033523 163.306553 885.343386 860.693447 885.343386 860.693447 192.033523ZM807.048302 618.673367 216.951698 618.673367 216.951698 245.356798 807.048302 245.356798 807.048302 618.673367ZM530.185704 466.696669 424.772993 361.927699C423.968316 360.747506 424.236542 359.138152 423.217284 358.118894 417.852769 352.808025 410.8789 350.715864 403.851386 351.037735 396.877517 350.715864 389.903648 352.808025 384.539134 358.118894 383.466231 359.138152 383.788102 360.747506 382.929779 361.927699L277.517068 466.696669C267.485426 476.728311 267.485426 492.929145 277.517068 502.907142 287.602355 512.88514 303.91048 512.88514 313.942122 502.907142L403.851386 413.53433 493.814296 502.907142C503.845938 512.88514 520.154062 512.88514 530.185704 502.907142 540.270992 492.929145 540.270992 476.728311 530.185704 466.696669ZM746.161061 307.424231C745.570965 306.619554 745.83919 305.493006 745.088158 304.741974 743.586094 303.23991 741.386643 303.561781 739.616353 302.488878 739.616353 302.488878 739.562708 302.488878 739.562708 302.488878 737.738773 301.46962 735.914838 300.718588 733.876323 300.128492 733.876323 300.128492 733.876323 300.128492 733.822678 300.128492 733.769033 300.128492 733.769033 300.128492 733.715387 300.128492 731.408646 299.48475 729.101905 298.680073 726.580583 298.680073 726.097777 298.680073 725.722261 298.894653 725.293099 298.948298 724.649358 298.948298 724.112906 298.572782 723.415519 298.680073L619.290291 298.680073C604.484231 298.680073 592.467719 310.589295 592.467719 325.34171 592.467719 340.094125 606.898263 350.340348 646.112864 352.003347L661.133505 352.003347 545.742797 466.696669C535.711154 476.728311 535.711154 492.929145 545.742797 502.907142 555.828084 512.88514 572.136208 512.88514 582.167851 502.907142L699.75801 386.01437 699.75801 431.827324C699.75801 446.68703 711.774523 458.649897 726.580583 458.649897 741.386643 458.649897 753.403156 446.68703 753.403156 431.827324L753.403156 325.502645C753.403156 325.449 753.403156 325.449 753.403156 325.395355 753.403156 325.395355 753.403156 325.34171 753.403156 325.34171 753.403156 321.80113 752.652124 318.475131 751.36464 315.471003 750.345383 312.896036 748.736028 310.803876 747.019383 308.711715 746.697513 308.282554 746.536577 307.799747 746.161061 307.424231ZM592.467719 725.319917 216.951698 725.319917 216.951698 671.996642 592.467719 671.996642 592.467719 725.319917ZM753.403156 832.020112 216.951698 832.020112 216.951698 778.643192 753.403156 778.643192 753.403156 832.020112Z" p-id="2169" fill="#ffffff"></path></svg>