<?xml version="1.0" standalone="no"?><!DOCTYPE svg PUBLIC "-//W3C//DTD SVG 1.1//EN" "http://www.w3.org/Graphics/SVG/1.1/DTD/svg11.dtd"><svg t="1529049028718" class="icon" style="" viewBox="0 0 1025 1024" version="1.1" xmlns="http://www.w3.org/2000/svg" p-id="1918" xmlns:xlink="http://www.w3.org/1999/xlink" width="32.03125" height="32"><defs><style type="text/css"></style></defs><path d="M1004.8 313.6l-64-121.6c-32-57.6-96-96-172.8-96L256 96C185.6 96 115.2 128 83.2 192l-64 128C0 358.4-6.4 403.2 12.8 448c12.8 25.6 38.4 44.8 38.4 57.6l0 384C44.8 960 121.6 1024 192 1024l646.4 0c70.4 0 128-64 128-134.4l0-384c0-19.2 32-38.4 44.8-64C1030.4 403.2 1030.4 358.4 1004.8 313.6zM902.4 889.6c0 38.4-32 70.4-64 70.4L192 960c-32 0-76.8-32-76.8-70.4L115.2 556.8C147.2 569.6 192 576 230.4 576c51.2 0 102.4-12.8 140.8-38.4C409.6 563.2 460.8 576 512 576c57.6 0 102.4-12.8 140.8-38.4C691.2 563.2 742.4 576 793.6 576c38.4 0 76.8-6.4 108.8-25.6L902.4 889.6z" p-id="1919" fill="#ffffff"></path></svg>